<svg width="97" height="30" viewBox="0 0 97 30" fill="none" xmlns="http://www.w3.org/2000/svg">
<path d="M65.5867 9.56728C65.1533 5.54333 62.6439 2.14533 59.0166 0.714596C55.3894 -0.71614 51.2603 0.0439387 48.3403 2.61479C46.5837 1.07228 44.3024 0.155715 41.9299 0.0439386C39.1011 -0.0901929 36.432 0.871082 34.4016 2.77128C32.5082 4.53734 31.3447 6.97407 31.1166 9.61199C31.0025 10.9309 31.1394 12.2499 31.5729 13.6583L13.8701 13.6136C13.3911 13.6136 13.0032 13.8371 12.7751 14.2172C12.5242 14.6419 12.5242 15.1784 12.7751 15.6032C13.0032 15.9832 13.3911 16.2068 13.8701 16.2068L33.4435 16.2515C33.8998 16.2515 34.2648 16.0503 34.4929 15.715C34.7438 15.3349 34.7895 14.7984 34.5841 14.3513C33.0557 10.8862 33.626 7.21997 36.067 4.80561C37.5726 3.33016 39.5573 2.57008 41.6333 2.63715C43.8233 2.70421 45.9221 3.7102 47.3821 5.36449C47.6102 5.61039 47.9524 5.76688 48.3403 5.76688C48.7281 5.76688 49.0703 5.63275 49.2984 5.36449C51.5569 2.81599 54.956 1.92178 58.0129 3.08425C60.7048 4.11259 62.6439 6.68345 62.9632 9.63434C63.0545 10.4838 63.8301 10.9086 64.5373 10.8415C65.2217 10.7521 65.6552 10.2379 65.5867 9.56728Z" fill="#2A2A2A"/>
<path d="M9.39895 26.1549H6.25079C5.86297 26.1549 5.56641 25.8419 5.56641 25.4842V4.20198C5.56641 3.82194 5.88579 3.53133 6.25079 3.53133H9.42177C9.80958 3.53133 10.1061 3.8443 10.1061 4.20198V25.4842C10.0833 25.8419 9.78677 26.1549 9.39895 26.1549Z" fill="#2A2A2A"/>
<path d="M3.87817 23.4946H0.684384C0.319379 23.4946 0 23.2039 0 22.8239V6.79518C0 6.4375 0.296566 6.12453 0.684384 6.12453H3.87817C4.24318 6.12453 4.56256 6.41515 4.56256 6.79518V22.8239C4.56256 23.2039 4.26599 23.4946 3.87817 23.4946Z" fill="#2A2A2A"/>
<path d="M14.9198 28.4575H11.7716C11.3838 28.4575 11.0645 28.1445 11.0645 27.7645V1.87707C11.0645 1.49703 11.3838 1.18405 11.7716 1.18405H14.9198C15.3076 1.18405 15.627 1.49703 15.627 1.87707V27.7868C15.627 28.1668 15.3076 28.4575 14.9198 28.4575Z" fill="#2A2A2A"/>
<path d="M82.9702 14.2172C82.7421 13.8372 82.3543 13.6136 81.8752 13.6136L63.3284 13.6583C62.9178 13.6583 62.3703 13.8819 62.1649 14.329C60.0662 18.8895 55.823 22.3098 52.7889 24.5006C51.4429 25.4619 50.097 26.3561 48.751 27.1609L48.6141 27.228C48.4088 27.3398 48.4088 27.3398 48.2263 27.2727C47.7016 27.0715 47.1769 26.7138 46.6751 26.3785C46.4697 26.2443 46.2644 26.1102 46.0819 25.9761C44.7132 25.1042 43.5269 24.2771 42.4319 23.4499C40.2647 21.7733 38.4853 20.0966 36.9796 18.2635C36.5462 17.727 35.8618 17.6599 35.3143 18.0847C34.7668 18.5094 34.5158 19.3589 35.0633 20.0296C36.5234 21.7956 38.2571 23.4723 40.3787 25.1266C41.6106 26.0879 42.9109 27.0268 44.2569 27.8986C44.9413 28.3457 45.6713 28.7929 46.4241 29.24L46.5838 29.3294C47.1085 29.6424 47.7016 30 48.4088 30C48.5457 30 48.7054 29.9777 48.8651 29.9553C49.4354 29.8212 49.9829 29.4635 50.4848 29.1505C50.6217 29.0611 50.7357 28.9717 50.8726 28.9046C51.6711 28.4128 52.4695 27.8763 53.268 27.3398C55.5036 25.7972 57.3971 24.2771 59.0852 22.6899C61.3893 20.499 63.0547 18.3753 64.1725 16.2515L81.8752 16.2068C82.3543 16.2068 82.7421 15.9833 82.9702 15.6032C83.2212 15.1785 83.2212 14.642 82.9702 14.2172Z" fill="#FBF138"/>
<path d="M87.6014 26.1549H90.7724C91.1602 26.1549 91.4567 25.8419 91.4567 25.4842V4.20198C91.4567 3.82194 91.1374 3.53133 90.7724 3.53133H87.6014C87.2136 3.53133 86.917 3.8443 86.917 4.20198V25.4842C86.917 25.8419 87.2136 26.1549 87.6014 26.1549Z" fill="#FBF138"/>
<path d="M93.1219 23.4946H96.3157C96.6807 23.4946 97 23.204 97 22.824V6.79526C97 6.43758 96.7035 6.1246 96.3157 6.1246H93.1219C92.7569 6.1246 92.4375 6.41522 92.4375 6.79526V22.824C92.4375 23.204 92.7341 23.4946 93.1219 23.4946Z" fill="#FBF138"/>
<path d="M82.0807 28.4575H85.2289C85.6167 28.4575 85.9361 28.1445 85.9361 27.7645V1.87707C85.9361 1.49703 85.6167 1.18405 85.2289 1.18405H82.0807C81.6929 1.18405 81.3735 1.49703 81.3735 1.87707V27.7868C81.3735 28.1668 81.6929 28.4575 82.0807 28.4575Z" fill="#FBF138"/>
</svg>
